:SAMPLES-PER-SECOND 30
:FULLY-SPECIFIED
:DEGREES
468
root  -22.4654 40.3847 -16.3989 22.7949 -84.4577 -24.6628
RightUpLeg  -18.5068 -19.8635 -6.16656
RightLeg  34.8667 -8.35092 -6.44573
RightFoot  2.16003 -0.663914 5.72586
RightToes  0.00048216 0.542163 -0.142577
Spine  36.6722 -1.96332 3.29768
Spine1  12.5642 1.81385 -8.94366
HEad  14.4011 53.4177 -18.285
LeftShoulder1  7.67512 -12.5777 -41.3917
LeftArm  -22.0294 23.8986 -19.7441
LeftForeArm  15.6938 -25.8271 -4.70645
LeftHand  -0.25398 0.0180481 5.50724
RightShoulder  6.02164 10.6742 36.4768
RightArm  7.36674 -24.1148 37.8474
RightForeArm  -6.80233 26.5771 6.05311
RightHand  -0.42469 -2.00765 -14.2194
LeftUpLeg  -12.8417 16.7088 0.191882
LeftLeg  18.657 -1.01632 -0.400843
LeftFoot  -3.79669 -0.241814 4.0174
LeftToes  1.06243e-005 4.65856e-005 -8.18503e-006
469
root  -21.6691 40.619 -15.9158 40.4955 -85.4509 -42.6151
RightUpLeg  -15.4706 -17.8384 -4.13484
RightLeg  39.8752 -8.3923 -7.70264
RightFoot  0.246422 -0.533174 5.26639
RightToes  0.00048216 0.542163 -0.142577
Spine  35.1256 -1.59963 3.49356
Spine1  12.0779 2.48273 -9.91773
HEad  15.1827 54.6396 -17.339
LeftShoulder1  7.64717 -12.2885 -42.0415
LeftArm  -20.1885 26.4202 -21.8118
LeftForeArm  16.8725 -24.713 -4.39991
LeftHand  -0.25398 0.0180481 5.50724
RightShoulder  5.93749 10.5797 36.1726
RightArm  5.29326 -22.1035 36.8845
RightForeArm  -6.58325 29.8181 6.84331
RightHand  -0.546118 -1.38359 -15.6217
LeftUpLeg  -11.4034 15.1894 1.20516
LeftLeg  14.4785 2.15472 -1.54934
LeftFoot  -1.30941 -0.458605 5.31709
LeftToes  1.06243e-005 4.65856e-005 -8.18503e-006
470
root  -20.9074 40.6715 -15.4702 50.5348 -86.048 -52.7973
RightUpLeg  -11.7672 -16.8369 -2.86498
RightLeg  43.5334 -7.45794 -7.81682
RightFoot  -1.41677 -0.479736 5.41679
RightToes  0.00048216 0.542163 -0.142577
Spine  33.1038 -1.2325 3.13319
Spine1  11.68 2.77482 -10.3215
HEad  16.4138 55.4493 -15.9552
LeftShoulder1  7.63345 -12.0217 -42.7298
LeftArm  -18.5026 28.8401 -23.7295
LeftForeArm  17.3563 -23.1953 -4.05742
LeftHand  -0.25398 0.0180481 5.50724
RightShoulder  5.84773 10.3966 36.0848
RightArm  2.46207 -20.6492 35.7249
RightForeArm  -6.70566 33.392 7.79485
RightHand  -0.673228 -0.787 -16.8596
LeftUpLeg  -10.7283 11.2264 1.60215
LeftLeg  11.5019 7.18087 -2.74973
LeftFoot  0.834824 -0.700658 6.51517
LeftToes  1.06243e-005 4.65856e-005 -8.18503e-006
471
root  -20.1596 40.5971 -15.0446 46.0898 -87.16 -47.5584
RightUpLeg  -8.57317 -16.9069 -2.68888
RightLeg  45.7604 -6.36086 -7.26058
RightFoot  -2.64886 -0.531579 6.75826
RightToes  0.00048216 0.542163 -0.142577
Spine  29.6343 -0.600661 2.07738
Spine1  11.7454 3.05176 -10.2578
HEad  17.665 55.6024 -14.6457
LeftShoulder1  7.64378 -11.8736 -43.2287
LeftArm  -17.3113 30.7867 -25.4571
LeftForeArm  17.2899 -21.389 -3.74164
LeftHand  -0.25398 0.0180481 5.50724
RightShoulder  5.75764 10.1462 36.1944
RightArm  -0.882868 -19.7954 34.643
RightForeArm  -7.41993 37.1595 8.93216
RightHand  -0.817362 -0.201939 -18.2172
LeftUpLeg  -11.3935 8.02768 0.278037
LeftLeg  8.75419 11.0623 -3.68828
LeftFoot  2.84299 -0.973658 7.67407
LeftToes  1.06243e-005 4.65856e-005 -8.18503e-006
472
root  -19.3913 40.4076 -14.638 12.5506 -88.5389 -12.5555
RightUpLeg  -5.8172 -17.6861 -3.42176
RightLeg  46.5934 -4.71557 -5.6429
RightFoot  -4.11711 -0.581079 8.76256
RightToes  0.00048216 0.542163 -0.142577
Spine  25.1444 0.272422 0.56546
Spine1  12.1797 3.56734 -10.13
HEad  18.557 55.2087 -13.6945
LeftShoulder1  7.63216 -11.7554 -43.5126
LeftArm  -16.7509 32.1582 -26.8252
LeftForeArm  17.0533 -19.6583 -3.53648
LeftHand  -0.25398 0.0180481 5.50724
RightShoulder  5.71426 9.96842 36.423
RightArm  -4.00282 -19.173 33.7224
RightForeArm  -8.59088 40.5244 10.092
RightHand  -0.995795 0.456846 -19.7291
LeftUpLeg  -13.2337 5.8735 -2.02277
LeftLeg  6.63234 13.7669 -4.51442
LeftFoot  4.51209 -1.25935 8.83073
LeftToes  1.06243e-005 4.65856e-005 -8.18503e-006
473
root  -18.5551 40.1151 -14.2443 -49.4586 -88.763 50.2798
RightUpLeg  -2.12362 -18.6704 -4.1441
RightLeg  45.7272 -1.71004 -2.22045
RightFoot  -5.45659 -0.610989 11.1111
RightToes  0.00048216 0.542163 -0.142577
Spine  21.5388 0.976816 -0.182814
Spine1  12.5348 4.23373 -10.2717
HEad  19.1524 54.4432 -13.0326
LeftShoulder1  7.5897 -11.627 -43.6438
LeftArm  -16.6756 32.9809 -27.9208
LeftForeArm  16.8317 -18.22 -3.4175
LeftHand  -0.25398 0.0180481 5.50724
RightShoulder  5.74469 9.92855 36.7658
RightArm  -6.07702 -18.3035 32.7097
RightForeArm  -9.40605 42.9948 11.0301
RightHand  -1.19703 1.20465 -21.0579
LeftUpLeg  -15.5982 5.9324 -4.25011
LeftLeg  6.71423 14.3151 -4.64965
LeftFoot  5.51718 -1.51873 9.99659
LeftToes  1.06243e-005 4.65856e-005 -8.18503e-006
474
root  -17.6181 39.7558 -13.8478 -75.26 -88.4127 75.6841
RightUpLeg  2.84827 -19.2439 -4.44019
RightLeg  42.9046 2.33019 1.99273
RightFoot  -5.42395 -0.785694 14.3324
RightToes  0.00048216 0.542163 -0.142577
Spine  19.7537 1.44979 0.325659
Spine1  12.7266 4.99454 -10.7963
HEad  19.5866 53.3489 -12.6266
LeftShoulder1  7.60945 -11.6298 -43.7548
LeftArm  -16.8856 33.2897 -28.9111
LeftForeArm  16.6352 -17.0803 -3.33707
LeftHand  -0.25398 0.0180481 5.50724
RightShoulder  5.83261 9.99617 37.1894
RightArm  -6.85143 -17.0976 31.3593
RightForeArm  -9.32293 44.6232 11.6603
RightHand  -1.33595 1.71978 -21.8104
LeftUpLeg  -17.7399 8.4319 -6.34013
LeftLeg  8.66599 12.4689 -3.86541
LeftFoot  5.99966 -1.73776 11.1204
LeftToes  1.06243e-005 4.65856e-005 -8.18503e-006
475
root  -16.6114 39.3778 -13.4189 -96.8312 -88.13 96.3253
RightUpLeg  7.86516 -19.174 -4.63814
RightLeg  38.3026 5.86056 4.68398
RightFoot  -5.01913 -0.962477 16.8439
RightToes  0.00048216 0.542163 -0.142577
Spine  18.7268 1.94503 1.50627
Spine1  12.9631 5.93678 -11.5052
HEad  19.8862 52.0406 -12.3201
LeftShoulder1  7.72682 -11.8074 -43.924
LeftArm  -17.2013 33.2334 -29.7592
LeftForeArm  16.5158 -16.4076 -3.28668
LeftHand  -0.25398 0.0180481 5.50724
RightShoulder  5.95929 10.1598 37.5855
RightArm  -6.65442 -15.7235 29.7962
RightForeArm  -8.58867 45.6441 12.033
RightHand  -1.32008 1.62708 -21.822
LeftUpLeg  -19.3346 10.9448 -8.23262
LeftLeg  10.2332 10.5239 -3.11652
LeftFoot  6.46589 -1.92143 11.9713
LeftToes  1.06243e-005 4.65856e-005 -8.18503e-006
476
root  -15.5573 39.0357 -12.9377 -122.323 -87.106 120.944
RightUpLeg  11.8765 -18.6985 -5.19306
RightLeg  32.865 7.51889 4.98401
RightFoot  -7.46435 -0.586602 15.0947
RightToes  0.00048216 0.542163 -0.142577
Spine  17.6734 2.50022 2.80375
Spine1  13.1324 7.0126 -12.4117
HEad  20.0346 50.8122 -11.8971
LeftShoulder1  7.82401 -11.9563 -44.0555
LeftArm  -17.4643 32.9737 -30.3592
LeftForeArm  16.6961 -16.6003 -3.28746
LeftHand  -0.25398 0.0180481 5.50724
RightShoulder  6.08312 10.3814 37.7749
RightArm  -5.91493 -14.0555 28.5334
RightForeArm  -7.6501 45.9518 12.103
RightHand  -1.16763 0.980983 -21.2327
LeftUpLeg  -20.0049 11.0921 -9.36236
LeftLeg  9.63035 11.409 -3.44973
LeftFoot  7.78618 -2.25938 13.055
LeftToes  1.06243e-005 4.65856e-005 -8.18503e-006
477
root  -14.3801 38.7263 -12.3983 -137.421 -85.6543 134.924
RightUpLeg  14.7927 -18.3092 -5.83084
RightLeg  28.0623 6.9148 3.76388
RightFoot  -13.8579 0.0913572 9.29361
RightToes  0.00048216 0.542163 -0.142577
Spine  17.344 2.76038 4.63826
Spine1  12.94 7.89036 -13.6449
HEad  19.8725 49.8104 -11.6956
LeftShoulder1  7.84222 -11.9528 -44.174
LeftArm  -17.5603 32.3527 -30.6418
LeftForeArm  17.4351 -17.8122 -3.35954
LeftHand  -0.25398 0.0180481 5.50724
RightShoulder  6.11553 10.537 37.5283
RightArm  -4.9912 -11.7916 28.0344
RightForeArm  -6.4822 45.3736 11.7887
RightHand  -0.97497 0.161534 -20.3085
LeftUpLeg  -19.4105 8.44712 -9.03853
LeftLeg  6.57564 16.0369 -5.18438
LeftFoot  10.6145 -3.07449 15.356
LeftToes  1.06243e-005 4.65856e-005 -8.18503e-006
478
root  -13.0348 38.454 -11.8155 -149.144 -85.0352 145.163
RightUpLeg  16.4449 -18.4786 -5.70865
RightLeg  24.9939 4.86208 2.2284
RightFoot  -20.7012 0.205147 4.02981
RightToes  0.00048216 0.542163 -0.142577
Spine  18.083 2.41291 7.64441
Spine1  12.5637 8.2408 -14.8338
HEad  19.204 48.7307 -12.369
LeftShoulder1  7.91658 -11.9568 -44.5996
LeftArm  -17.4301 30.9921 -30.547
LeftForeArm  18.7287 -19.6817 -3.49406
LeftHand  -0.25398 0.0180481 5.50724
RightShoulder  6.01931 10.5546 36.8119
RightArm  -4.31591 -9.17516 28.1288
RightForeArm  -4.91236 44.2275 11.2282
RightHand  -0.814884 -0.527403 -19.3327
LeftUpLeg  -17.8335 3.66656 -7.05562
LeftLeg  1.37689 21.9547 -8.16638
LeftFoot  14.7653 -4.06284 17.0245
LeftToes  1.06243e-005 4.65856e-005 -8.18503e-006
